<svg xmlns="http://www.w3.org/2000/svg" width="701.17" height="445" viewBox="0 0 701.17 445"><defs><style>.a{fill:none;stroke:#000;stroke-miterlimit:10;stroke-width:2px;stroke-dasharray:12 12;}.b{fill:#4caf50;}.c{fill:#388e3c;}.d{fill:#2196f3;}.e{fill:#1976d2;}.f{fill:#f44336;}.g{fill:#d32f2f;}</style></defs><path d="M455.92,323.86h0c.15-.21.35-.46.52-.66l1.7-2h1.27l-2.24,2.38,2.56,3.42h-1.29l-2-2.78-.54.6V327h-1v-8.52h1Z" transform="translate(-5.83 -8)"/><path d="M460.71,323v-.72h6.19V323Zm0,2.35v-.72h6.19v.72Z" transform="translate(-5.83 -8)"/><path d="M468.77,325.79a3.57,3.57,0,0,0,1.73.49c1.35,0,1.77-.86,1.76-1.51,0-1.09-1-1.56-2-1.56h-.59v-.79h.59c.76,0,1.74-.4,1.74-1.32,0-.62-.4-1.18-1.37-1.18a2.83,2.83,0,0,0-1.56.52l-.28-.77a3.71,3.71,0,0,1,2-.6c1.54,0,2.23.91,2.23,1.86a1.94,1.94,0,0,1-1.44,1.84v0a2,2,0,0,1,1.74,2c0,1.25-1,2.34-2.84,2.34a3.9,3.9,0,0,1-2-.53Z" transform="translate(-5.83 -8)"/><path d="M527.25,380.19h0c.14-.2.34-.45.51-.66l1.71-2h1.27l-2.25,2.39,2.56,3.41h-1.29l-2-2.78-.54.6v2.18h-1v-8.51h1Z" transform="translate(-5.83 -8)"/><path d="M532,379.29v-.72h6.19v.72Zm0,2.35v-.72h6.19v.72Z" transform="translate(-5.83 -8)"/><path d="M544.51,376.42h-3l-.3,2a3.52,3.52,0,0,1,.64-.05,3.28,3.28,0,0,1,1.68.42,2.22,2.22,0,0,1,1.11,2,2.7,2.7,0,0,1-2.9,2.66,3.92,3.92,0,0,1-1.94-.47l.26-.81a3.51,3.51,0,0,0,1.67.43,1.71,1.71,0,0,0,1.84-1.69c0-1-.68-1.72-2.24-1.72a7.6,7.6,0,0,0-1.08.08l.51-3.74h3.73Z" transform="translate(-5.83 -8)"/><path d="M354.5,28a211.56,211.56,0,0,1,82.32,406.38A211.55,211.55,0,0,1,272.18,44.62,210.12,210.12,0,0,1,354.5,28m0-2C236.59,26,141,121.59,141,239.5S236.59,453,354.5,453,568,357.41,568,239.5,472.41,26,354.5,26Z" transform="translate(-5.83 -8)"/><circle class="a" cx="348.17" cy="231" r="122"/><circle class="b" cx="348.17" cy="231" r="10"/><path class="c" d="M354,230a9,9,0,1,1-9,9,9,9,0,0,1,9-9m0-2a11,11,0,1,0,11,11,11,11,0,0,0-11-11Z" transform="translate(-5.83 -8)"/><rect class="d" x="360.17" y="137" width="22" height="22"/><path class="e" d="M387,146v20H367V146h20m2-2H365v24h24V144Z" transform="translate(-5.83 -8)"/><rect class="d" x="678.17" y="290" width="22" height="22"/><path class="e" d="M705,299v20H685V299h20m2-2H683v24h24V297Z" transform="translate(-5.83 -8)"/><rect class="d" x="400.17" y="245" width="22" height="22"/><path class="e" d="M427,254v20H407V254h20m2-2H405v24h24V252Z" transform="translate(-5.83 -8)"/><rect class="d" x="475.17" y="422" width="22" height="22"/><path class="e" d="M502,431v20H482V431h20m2-2H480v24h24V429Z" transform="translate(-5.83 -8)"/><rect class="d" x="595.17" y="375" width="22" height="22"/><path class="e" d="M622,384v20H602V384h20m2-2H600v24h24V382Z" transform="translate(-5.83 -8)"/><rect class="d" x="583.17" y="173" width="22" height="22"/><path class="e" d="M610,182v20H590V182h20m2-2H588v24h24V180Z" transform="translate(-5.83 -8)"/><polygon class="f" points="281.09 243 292.92 221.1 304.74 243 281.09 243"/><path class="g" d="M298.75,231.21l5,9.24L308.9,250H288.6l5.16-9.55,5-9.24m0-4.21L292,239.5,285.25,252h27l-6.75-12.5L298.75,227Z" transform="translate(-5.83 -8)"/><polygon class="f" points="274.68 390 286.5 368.1 298.32 390 274.68 390"/><path class="g" d="M292.33,378.21l5,9.24,5.16,9.55H282.19l5.15-9.55,5-9.24m0-4.21-6.75,12.5L278.83,399h27l-6.75-12.5L292.33,374Z" transform="translate(-5.83 -8)"/><polygon class="f" points="186.68 172 198.5 150.1 210.32 172 186.68 172"/><path class="g" d="M204.33,160.21l5,9.24,5.16,9.55H194.19l5.15-9.55,5-9.24m0-4.21-6.75,12.5L190.83,181h27l-6.75-12.5L204.33,156Z" transform="translate(-5.83 -8)"/><polygon class="f" points="136.68 383 148.5 361.1 160.32 383 136.68 383"/><path class="g" d="M154.33,371.21l5,9.24,5.16,9.55H144.19l5.15-9.55,5-9.24m0-4.21-6.75,12.5L140.83,392h27l-6.75-12.5L154.33,367Z" transform="translate(-5.83 -8)"/><polygon class="f" points="1.68 172 13.5 150.1 25.32 172 1.68 172"/><path class="g" d="M19.33,160.21l5,9.24L29.48,179H9.19l5.15-9.55,5-9.24m0-4.21-6.75,12.5L5.83,181h27l-6.75-12.5L19.33,156Z" transform="translate(-5.83 -8)"/><polygon class="f" points="163.34 24 175.17 2.1 186.99 24 163.34 24"/><path class="g" d="M181,12.21l5,9.24L191.15,31h-20.3L176,21.45l5-9.24M181,8l-6.75,12.5L167.5,33h27l-6.75-12.5L181,8Z" transform="translate(-5.83 -8)"/></svg>